<svg width="143" height="27" viewBox="0 0 143 27" fill="none" xmlns="http://www.w3.org/2000/svg">
<path fill-rule="evenodd" clip-rule="evenodd" d="M18.776 23.2413C17.9809 22.7007 17.075 21.9688 16.3125 21.026C15.6087 20.1557 14.8722 18.9492 15.0156 17.6635C15.0417 17.413 15.1655 17.1294 15.3154 16.9251C16.5145 15.2504 21.65 15.1581 22.4711 17.3206C22.5363 17.4987 22.5819 17.7031 22.5819 17.8745C22.621 19.1799 21.8846 20.2942 21.2133 21.0985C20.4834 21.982 19.5971 22.6479 18.776 23.2413ZM17.8245 18.1646C17.5833 18.4745 17.2705 18.9492 17.3487 19.4305C17.5116 20.4458 19.9164 20.3931 20.2227 19.5425C20.3792 19.1074 20.0533 18.4942 19.7926 18.158C19.4798 17.7558 19.0823 17.4723 18.789 17.2811C18.4436 17.525 18.1308 17.7756 17.8245 18.1646Z" fill="#5492B7"/>
<path fill-rule="evenodd" clip-rule="evenodd" d="M30.174 0C29.5549 1.5428 28.9619 3.11198 28.3949 4.70093C26.6939 5.68332 24.8366 6.50746 22.9531 7.30524C24.6215 7.25908 26.2703 7.18656 27.7627 6.96239C27.2674 8.22169 26.8047 9.51395 26.3485 10.8128C25.8271 10.8853 25.3123 10.9644 24.7975 11.0436C25.1559 11.6238 25.7815 12.2633 26.1204 12.8633C24.993 12.8765 23.8525 12.7776 22.8423 12.7512C23.6244 13.0215 24.3152 13.3973 24.9408 13.9248C25.0972 14.0566 25.3775 14.4127 25.5078 14.4325C25.6382 14.4522 26.0487 14.2874 26.2833 14.2281C29.9981 13.2061 33.98 12.1314 37.6296 11.1359C36.3392 12.5072 34.9771 13.9248 33.6411 15.3555C33.4521 15.5599 33.2305 15.8236 33.0481 15.9291C32.82 16.0676 32.5137 16.1269 32.253 16.2324C31.484 16.5291 30.7215 16.8258 29.9525 17.1554C31.9076 17.5708 33.9148 17.9268 35.8569 18.3554C34.0973 19.0147 32.2921 19.6411 30.4543 20.3136C30.1936 20.4125 29.9329 20.5641 29.6983 20.5905C29.1509 20.6432 28.6621 20.4322 28.1277 20.452C29.3985 21.8761 30.9821 23.3069 32.253 24.7376C30.4934 24.2497 28.5774 23.8014 26.733 23.3332C26.4723 23.2673 26.1726 23.2212 25.9575 23.1289C25.6382 22.9838 25.3644 22.641 25.0907 22.4102C24.7779 22.1531 24.4911 21.9355 24.2044 21.7179C22.712 23.7552 20.8481 25.4299 18.7105 26.8144C16.6511 25.3903 14.8329 23.7222 13.3535 21.7179C13.0863 21.9553 12.793 22.1794 12.4867 22.4366C12.213 22.6607 11.9328 22.997 11.6199 23.1289C11.3918 23.2212 11.0921 23.2673 10.8249 23.3332C9.05221 23.7948 7.07102 24.2761 5.31141 24.7376C6.60179 23.4058 7.95734 22.041 9.27379 20.7026C9.34548 20.63 9.48234 20.518 9.45627 20.452C8.92839 20.4388 8.44612 20.6366 7.90521 20.5905C7.67059 20.5707 7.38384 20.4125 7.10361 20.3136C5.31141 19.6608 3.48012 19.0015 1.72702 18.329C3.71473 17.94 5.71547 17.5708 7.65104 17.1291C6.84944 16.8258 6.10649 16.5423 5.30489 16.2324C5.05073 16.1335 4.74443 16.061 4.52936 15.9291C4.34037 15.817 4.13834 15.5335 3.93631 15.3291C2.60031 13.9709 1.25128 12.4809 0 11.1359C4.008 12.2567 8.07465 13.3116 12.0761 14.4325C12.8973 13.4435 14.1486 12.8897 15.5171 12.4479C14.0247 12.2567 11.646 11.9996 10.4599 12.6589C10.3165 12.738 10.2057 12.8567 10.1406 13.0017C9.59313 12.7314 9.31289 12.3226 9.02614 11.8479C8.73939 11.3666 8.49826 10.7732 8.49826 10.0941C8.50478 8.72277 9.35851 7.8195 10.1406 7.18656C10.9682 6.52724 11.9262 5.94704 13.0146 5.53167C14.1029 5.1163 15.3086 4.78664 16.4752 4.47017C19.9683 3.53394 23.6895 2.63727 26.9807 1.40435C28.1146 0.982383 29.2291 0.567013 30.148 0C30.1545 0 30.1675 0 30.174 0ZM23.8134 19.8257C24.1848 19.0609 24.5628 18.0389 24.4977 17.0104C24.4129 15.6258 23.3898 14.9204 22.3535 14.4522C20.2485 13.4962 16.8922 13.5753 14.9502 14.5445C14.0964 14.9665 13.2101 15.6786 13.1058 16.806C13.0016 17.8609 13.347 18.8828 13.7184 19.6872C14.8198 22.0674 16.8336 23.7948 18.7561 25.153C20.7112 23.7684 22.6859 22.1399 23.8134 19.8257Z" fill="#5492B7"/>
<path d="M43.2871 1.21531C42.4321 1.97496 41.9619 2.99505 41.9619 4.21049C41.9619 5.42592 42.4107 6.46772 43.2657 7.20567C43.7146 7.61805 44.4841 8.07383 45.6383 8.59473L46.9208 9.22415C47.2842 9.4412 47.4338 9.54972 47.4979 9.61483C47.9468 10.0055 48.1391 10.4613 48.1391 11.0473C48.1391 11.9589 47.7758 12.2844 47.6689 12.3713C47.3269 12.6751 46.8139 12.827 46.1299 12.827C44.9543 12.827 44.3131 12.3496 44.0138 11.2209L43.736 10.1574L41 11.0907L41.2779 12.0457C42.0046 14.4332 43.6718 15.692 46.1299 15.692C46.8994 15.692 47.5834 15.5835 48.1605 15.3664C49.443 14.8889 50.9392 13.7386 50.9392 11.0473C50.9392 9.70165 50.469 8.57303 49.5712 7.66145C49.2506 7.33589 48.8659 7.03203 48.3743 6.74988C47.9254 6.46772 47.391 6.20727 46.7712 5.92512C45.6811 5.42592 45.2963 5.16547 45.1681 5.05695C44.8047 4.73139 44.7406 4.42753 44.7406 4.21049C44.7406 3.81981 44.8688 3.53766 45.1467 3.29891C45.4459 3.06017 45.8093 2.92994 46.2795 2.92994C46.7712 2.92994 47.1345 3.01676 47.391 3.16869C47.6262 3.29891 47.7758 3.47255 47.9468 3.733L48.417 4.51435L50.982 3.38573L50.4476 2.38734C49.8919 1.34554 48.6949 0.108398 46.3009 0.108398C45.1253 0.108398 44.0993 0.477369 43.2871 1.21531Z" fill="#5492B7"/>
<path d="M63.9992 0.173828V11.1778C63.9992 11.677 63.8282 12.046 63.4648 12.3499C63.0801 12.6537 62.5885 12.8057 61.9686 12.8057C61.3487 12.8057 60.8571 12.6537 60.4724 12.3499C60.109 12.0677 59.9594 11.6987 59.9594 11.1561V0.173828H57.1807V11.1778C57.1807 12.5669 57.6723 13.6955 58.6555 14.542C59.5533 15.2799 60.6647 15.6489 61.9686 15.6489C63.3152 15.6489 64.4267 15.2799 65.2817 14.542C66.2649 13.7172 66.7993 12.5452 66.7993 11.1561V0.173828H63.9992Z" fill="#5492B7"/>
<path d="M97.3438 2.23553C95.8903 3.71141 95.1636 5.59968 95.1636 7.85691C95.1636 10.1359 95.8903 12.0458 97.3438 13.5217C98.7759 14.9759 100.657 15.7138 102.901 15.7138C105.252 15.7138 107.198 14.9325 108.651 13.3698C109.998 11.9373 110.682 10.1576 110.682 8.07396V7.03215H103.478V9.8754C103.478 9.8754 106.236 9.8754 107.518 9.8754C107.326 10.3963 107.027 10.8738 106.62 11.3079C105.68 12.3497 104.483 12.8489 102.923 12.8489C101.469 12.8489 100.293 12.3931 99.3316 11.4381C98.4125 10.5048 97.9637 9.31109 97.9637 7.83521C97.9637 6.35932 98.4125 5.1873 99.353 4.23232C100.293 3.27733 101.469 2.82154 102.901 2.82154C104.675 2.82154 106.022 3.47267 106.984 4.84003L107.604 5.7082L109.848 3.97186L109.228 3.14711C107.711 1.0635 105.573 0 102.901 0C100.678 0 98.8186 0.759646 97.3438 2.23553Z" fill="#5492B7"/>
<path d="M114.935 2.21383C113.503 3.66801 112.776 5.57797 112.776 7.85691C112.776 10.1359 113.524 12.0458 114.956 13.5217C116.388 14.9759 118.269 15.7138 120.514 15.7138C122.758 15.7138 124.639 14.9759 126.093 13.5C127.546 12.0458 128.273 10.1359 128.273 7.85691C128.273 5.57797 127.546 3.66801 126.093 2.19212C124.618 0.737942 122.737 0 120.514 0C118.248 0 116.388 0.737942 114.935 2.21383ZM116.923 11.4598C116.004 10.5265 115.555 9.3545 115.555 7.85691C115.555 6.35933 116.004 5.1656 116.944 4.23232C117.885 3.27733 119.039 2.82154 120.492 2.82154C121.989 2.82154 123.164 3.27733 124.083 4.23232C125.002 5.1656 125.451 6.35933 125.451 7.85691C125.451 9.37621 125.002 10.5699 124.083 11.5032C123.164 12.4148 121.989 12.8706 120.492 12.8706C119.039 12.8706 117.863 12.4148 116.923 11.4598Z" fill="#5492B7"/>
<path d="M130.752 0.174048V15.5189H136.117C138.191 15.5189 139.901 14.7158 141.205 13.1314C142.38 11.6773 142.979 9.89752 142.979 7.81392C142.979 5.75202 142.38 3.97228 141.183 2.5398C139.879 0.955398 138.191 0.152344 136.117 0.152344L130.752 0.174048ZM136.117 3.0173C137.357 3.0173 138.319 3.47308 139.067 4.40636C139.815 5.31794 140.179 6.44656 140.179 7.83562C140.179 9.37662 139.751 10.5704 138.875 11.4602C138.084 12.285 137.165 12.6757 136.117 12.6757C136.117 12.6757 134.579 12.6757 133.531 12.6757C133.531 11.113 133.531 4.55829 133.531 2.99559C134.579 3.0173 136.117 3.0173 136.117 3.0173Z" fill="#5492B7"/>
<path d="M85.7371 0.173828H82.937C82.937 0.173828 82.937 6.68508 82.937 9.8973C81.2484 7.87881 77.059 2.90855 74.7719 0.173828H73.1902V15.5187H75.9689C75.9689 15.5187 75.9689 9.18106 75.9689 6.01225C77.6361 7.98733 81.7187 12.784 84.0485 15.5187H85.7371V0.173828Z" fill="#5492B7"/>
<path d="M46.023 21.2705H43.9283V22.7464H45.9589V23.6146H43.9283V26.5446H42.9878V20.4023H46.0016V21.2705H46.023Z" fill="#5492B7"/>
<path d="M54.0171 21.2705H51.5804V22.7464H53.9316V23.6146H51.5804V25.6548H53.9957V26.5229H50.6826V20.4023H54.0171V21.2705Z" fill="#5492B7"/>
<path d="M62.2249 21.3135L61.4768 21.7476C61.3486 21.5088 61.199 21.3569 61.0707 21.2701C60.9425 21.1833 60.7715 21.1399 60.5577 21.1399C60.3012 21.1399 60.0875 21.205 59.9379 21.3569C59.7669 21.5088 59.6814 21.6825 59.6814 21.8995C59.6814 22.2034 59.8951 22.4421 60.344 22.6158L60.9425 22.8762C61.4341 23.0715 61.7975 23.332 62.0112 23.6141C62.2249 23.8963 62.3532 24.2653 62.3532 24.6777C62.3532 25.242 62.1608 25.7195 61.7975 26.0884C61.4127 26.4574 60.9638 26.6527 60.4081 26.6527C59.8951 26.6527 59.4462 26.5008 59.1042 26.1752C58.7622 25.8497 58.5485 25.4156 58.4844 24.8513L59.4035 24.6342C59.4462 25.0032 59.5104 25.242 59.6172 25.3722C59.8096 25.6326 60.0875 25.7629 60.4295 25.7629C60.7073 25.7629 60.9425 25.676 61.1348 25.4807C61.3272 25.2854 61.4127 25.0466 61.4127 24.7428C61.4127 24.6342 61.3913 24.5257 61.37 24.4172C61.3486 24.3087 61.2845 24.2219 61.2203 24.135C61.1562 24.0482 61.0707 23.9831 60.9638 23.8963C60.857 23.8095 60.7287 23.7444 60.5791 23.6793L60.002 23.4405C59.1684 23.0932 58.7622 22.5723 58.7622 21.8778C58.7622 21.422 58.9332 21.0313 59.2752 20.7275C59.6172 20.4236 60.0447 20.25 60.5791 20.25C61.2845 20.2717 61.8402 20.619 62.2249 21.3135Z" fill="#5492B7"/>
<path d="M68.8724 21.2705V26.5229H67.9533V21.2705H66.564V20.4023H70.2404V21.2705H68.8724Z" fill="#5492B7"/>
<path d="M75.5842 20.4023V26.5446H74.665V20.4023H75.5842Z" fill="#5492B7"/>
<path d="M80.9492 20.4023L82.6164 24.6564L84.305 20.4023H85.3096L82.595 27.0004L79.9446 20.4023H80.9492Z" fill="#5492B7"/>
<path d="M92.7053 25.0469H90.119L89.4564 26.5445H88.4731L91.4656 20.0332L94.3512 26.5445H93.3466L92.7053 25.0469ZM92.342 24.1787L91.4442 22.0951L90.5037 24.1787H92.342Z" fill="#5492B7"/>
<path d="M99.6094 20.4023V25.6548H101.384V26.5229H98.7117V20.4023H99.6094Z" fill="#5492B7"/>
<path d="M113.225 25.6549H115.469V26.523H111.408L113.503 23.9402C113.717 23.6798 113.888 23.4628 114.016 23.2674C114.144 23.0721 114.251 22.9202 114.337 22.7899C114.486 22.5295 114.55 22.3124 114.55 22.1171C114.55 21.8349 114.443 21.5962 114.251 21.4009C114.059 21.2055 113.802 21.1187 113.524 21.1187C112.904 21.1187 112.562 21.4877 112.477 22.2256H111.579C111.729 20.9234 112.37 20.2939 113.503 20.2939C114.059 20.2939 114.508 20.4676 114.892 20.8365C115.277 21.1838 115.448 21.6396 115.448 22.1605C115.448 22.4861 115.363 22.8116 115.192 23.1372C115.106 23.3108 114.978 23.5062 114.807 23.7232C114.636 23.962 114.422 24.2224 114.166 24.5263L113.225 25.6549Z" fill="#5492B7"/>
<path d="M120.108 23.4193C120.108 22.4427 120.321 21.6613 120.77 21.0753C121.176 20.5544 121.668 20.2939 122.224 20.2939C122.78 20.2939 123.292 20.5544 123.677 21.0753C124.126 21.6613 124.34 22.4427 124.34 23.4628C124.34 24.4611 124.126 25.2642 123.677 25.8502C123.271 26.3711 122.801 26.6316 122.224 26.6316C121.647 26.6316 121.176 26.3711 120.749 25.8502C120.321 25.2642 120.108 24.4611 120.108 23.4193ZM121.005 23.4193C121.005 24.0922 121.112 24.6565 121.347 25.1123C121.583 25.5464 121.882 25.7851 122.224 25.7851C122.587 25.7851 122.865 25.5681 123.1 25.1123C123.335 24.6782 123.442 24.1139 123.442 23.4411C123.442 22.7682 123.335 22.2039 123.1 21.7698C122.865 21.3357 122.566 21.1187 122.224 21.1187C121.86 21.1187 121.583 21.3357 121.347 21.7698C121.112 22.2256 121.005 22.7682 121.005 23.4193Z" fill="#5492B7"/>
<path d="M130.325 25.6549H132.569V26.523H128.508L130.603 23.9402C130.816 23.6798 130.987 23.4628 131.116 23.2674C131.244 23.0721 131.351 22.9202 131.436 22.7899C131.586 22.5295 131.65 22.3124 131.65 22.1171C131.65 21.8349 131.543 21.5962 131.351 21.4009C131.158 21.2055 130.902 21.1187 130.624 21.1187C130.004 21.1187 129.662 21.4877 129.577 22.2256H128.679C128.828 20.9234 129.47 20.2939 130.603 20.2939C131.158 20.2939 131.607 20.4676 131.992 20.8365C132.377 21.1838 132.548 21.6396 132.548 22.1605C132.548 22.4861 132.462 22.8116 132.291 23.1372C132.206 23.3108 132.077 23.5062 131.906 23.7232C131.735 23.962 131.522 24.2224 131.265 24.5263L130.325 25.6549Z" fill="#5492B7"/>
<path d="M137.207 23.4193C137.207 22.4427 137.421 21.6613 137.87 21.0753C138.276 20.5544 138.768 20.2939 139.323 20.2939C139.879 20.2939 140.392 20.5544 140.777 21.0753C141.226 21.6613 141.439 22.4427 141.439 23.4628C141.439 24.4611 141.226 25.2642 140.777 25.8502C140.371 26.3711 139.9 26.6316 139.323 26.6316C138.746 26.6316 138.276 26.3711 137.849 25.8502C137.421 25.2642 137.207 24.4611 137.207 23.4193ZM138.105 23.4193C138.105 24.0922 138.212 24.6565 138.447 25.1123C138.682 25.5464 138.981 25.7851 139.323 25.7851C139.687 25.7851 139.965 25.5681 140.2 25.1123C140.435 24.6782 140.542 24.1139 140.542 23.4411C140.542 22.7682 140.435 22.2039 140.2 21.7698C139.965 21.3357 139.665 21.1187 139.323 21.1187C138.96 21.1187 138.682 21.3357 138.447 21.7698C138.233 22.2256 138.105 22.7682 138.105 23.4193Z" fill="#5492B7"/>
</svg>
