<svg width="102" height="27" viewBox="0 0 102 27" fill="none" xmlns="http://www.w3.org/2000/svg">
<path d="M2.28709 1.21531C1.4321 1.97496 0.961861 2.99505 0.961861 4.21049C0.961861 5.42592 1.41073 6.46772 2.26572 7.20567C2.71459 7.61805 3.48407 8.07383 4.63831 8.59473L5.92079 9.22415C6.28416 9.4412 6.43378 9.54972 6.4979 9.61483C6.94677 10.0055 7.13915 10.4613 7.13915 11.0473C7.13915 11.9589 6.77578 12.2844 6.6689 12.3713C6.32691 12.6751 5.81392 12.827 5.12993 12.827C3.95432 12.827 3.31308 12.3496 3.01383 11.2209L2.73596 10.1574L0 11.0907L0.277871 12.0457C1.00461 14.4332 2.67184 15.692 5.12993 15.692C5.89941 15.692 6.5834 15.5835 7.16052 15.3664C8.443 14.8889 9.93923 13.7386 9.93923 11.0473C9.93923 9.70165 9.46899 8.57303 8.57125 7.66145C8.25063 7.33589 7.86589 7.03203 7.37427 6.74988C6.9254 6.46772 6.39103 6.20727 5.77117 5.92512C4.68106 5.42592 4.29631 5.16547 4.16806 5.05695C3.80469 4.73139 3.74057 4.42753 3.74057 4.21049C3.74057 3.81981 3.86882 3.53766 4.14669 3.29891C4.44593 3.06017 4.8093 2.92994 5.27955 2.92994C5.77117 2.92994 6.13454 3.01676 6.39103 3.16869C6.62615 3.29891 6.77578 3.47255 6.94677 3.733L7.41702 4.51435L9.98198 3.38573L9.44761 2.38734C8.89187 1.34554 7.69489 0.108398 5.30092 0.108398C4.12531 0.108398 3.09933 0.477369 2.28709 1.21531Z" fill="#5492B7"/>
<path d="M22.9992 0.173828V11.1778C22.9992 11.677 22.8282 12.046 22.4648 12.3499C22.0801 12.6537 21.5885 12.8057 20.9686 12.8057C20.3487 12.8057 19.8571 12.6537 19.4724 12.3499C19.109 12.0677 18.9594 11.6987 18.9594 11.1561V0.173828H16.1807V11.1778C16.1807 12.5669 16.6723 13.6955 17.6555 14.542C18.5533 15.2799 19.6647 15.6489 20.9686 15.6489C22.3152 15.6489 23.4267 15.2799 24.2817 14.542C25.2649 13.7172 25.7993 12.5452 25.7993 11.1561V0.173828H22.9992Z" fill="#5492B7"/>
<path d="M56.3438 2.23553C54.8903 3.71141 54.1636 5.59968 54.1636 7.85691C54.1636 10.1359 54.8903 12.0458 56.3438 13.5217C57.7759 14.9759 59.6569 15.7138 61.9012 15.7138C64.2524 15.7138 66.1975 14.9325 67.651 13.3698C68.9976 11.9373 69.6816 10.1576 69.6816 8.07396V7.03215H62.4783V9.8754C62.4783 9.8754 65.2357 9.8754 66.5181 9.8754C66.3258 10.3963 66.0265 10.8738 65.6204 11.3079C64.6799 12.3497 63.4829 12.8489 61.9226 12.8489C60.4691 12.8489 59.2935 12.3931 58.3316 11.4381C57.4125 10.5048 56.9637 9.31109 56.9637 7.83521C56.9637 6.35932 57.4125 5.1873 58.353 4.23232C59.2935 3.27733 60.4691 2.82154 61.9012 2.82154C63.6753 2.82154 65.0219 3.47267 65.9838 4.84003L66.6036 5.7082L68.848 3.97186L68.2281 3.14711C66.7105 1.0635 64.573 0 61.9012 0C59.6782 0 57.8186 0.759646 56.3438 2.23553Z" fill="#5492B7"/>
<path d="M73.935 2.21383C72.5029 3.66801 71.7761 5.57797 71.7761 7.85691C71.7761 10.1359 72.5242 12.0458 73.9563 13.5217C75.3884 14.9759 77.2694 15.7138 79.5138 15.7138C81.7581 15.7138 83.6391 14.9759 85.0926 13.5C86.546 12.0458 87.2728 10.1359 87.2728 7.85691C87.2728 5.57797 86.546 3.66801 85.0926 2.19212C83.6177 0.737942 81.7367 0 79.5138 0C77.248 0 75.3884 0.737942 73.935 2.21383ZM75.9228 11.4598C75.0037 10.5265 74.5548 9.3545 74.5548 7.85691C74.5548 6.35933 75.0037 5.1656 75.9442 4.23232C76.8847 3.27733 78.0389 2.82154 79.4924 2.82154C80.9886 2.82154 82.1642 3.27733 83.0833 4.23232C84.0024 5.1656 84.4513 6.35933 84.4513 7.85691C84.4513 9.37621 84.0024 10.5699 83.0833 11.5032C82.1642 12.4148 80.9886 12.8706 79.4924 12.8706C78.0389 12.8706 76.8633 12.4148 75.9228 11.4598Z" fill="#5492B7"/>
<path d="M89.7524 0.174048V15.5189H95.1175C97.1908 15.5189 98.9008 14.7158 100.205 13.1314C101.38 11.6773 101.979 9.89752 101.979 7.81392C101.979 5.75202 101.38 3.97228 100.183 2.5398C98.8794 0.955398 97.1908 0.152344 95.1175 0.152344L89.7524 0.174048ZM95.1175 3.0173C96.3572 3.0173 97.3191 3.47308 98.0672 4.40636C98.8153 5.31794 99.1787 6.44656 99.1787 7.83562C99.1787 9.37662 98.7512 10.5704 97.8748 11.4602C97.084 12.285 96.1648 12.6757 95.1175 12.6757C95.1175 12.6757 93.5785 12.6757 92.5312 12.6757C92.5312 11.113 92.5312 4.55829 92.5312 2.99559C93.5785 3.0173 95.1175 3.0173 95.1175 3.0173Z" fill="#5492B7"/>
<path d="M44.7371 0.173828H41.937C41.937 0.173828 41.937 6.68508 41.937 9.8973C40.2484 7.87881 36.059 2.90855 33.7719 0.173828H32.1902V15.5187H34.9689C34.9689 15.5187 34.9689 9.18106 34.9689 6.01225C36.6361 7.98733 40.7187 12.784 43.0485 15.5187H44.7371V0.173828Z" fill="#5492B7"/>
<path d="M5.023 21.2705H2.92828V22.7464H4.95887V23.6146H2.92828V26.5446H1.98779V20.4023H5.00162V21.2705H5.023Z" fill="#5492B7"/>
<path d="M13.0171 21.2705H10.5804V22.7464H12.9316V23.6146H10.5804V25.6548H12.9957V26.5229H9.68262V20.4023H13.0171V21.2705Z" fill="#5492B7"/>
<path d="M21.2249 21.3135L20.4768 21.7476C20.3486 21.5088 20.199 21.3569 20.0707 21.2701C19.9425 21.1833 19.7715 21.1399 19.5577 21.1399C19.3012 21.1399 19.0875 21.205 18.9379 21.3569C18.7669 21.5088 18.6814 21.6825 18.6814 21.8995C18.6814 22.2034 18.8951 22.4421 19.344 22.6158L19.9425 22.8762C20.4341 23.0715 20.7975 23.332 21.0112 23.6141C21.2249 23.8963 21.3532 24.2653 21.3532 24.6777C21.3532 25.242 21.1608 25.7195 20.7975 26.0884C20.4127 26.4574 19.9638 26.6527 19.4081 26.6527C18.8951 26.6527 18.4462 26.5008 18.1042 26.1752C17.7622 25.8497 17.5485 25.4156 17.4844 24.8513L18.4035 24.6342C18.4462 25.0032 18.5104 25.242 18.6172 25.3722C18.8096 25.6326 19.0875 25.7629 19.4295 25.7629C19.7073 25.7629 19.9425 25.676 20.1348 25.4807C20.3272 25.2854 20.4127 25.0466 20.4127 24.7428C20.4127 24.6342 20.3913 24.5257 20.37 24.4172C20.3486 24.3087 20.2845 24.2219 20.2203 24.135C20.1562 24.0482 20.0707 23.9831 19.9638 23.8963C19.857 23.8095 19.7287 23.7444 19.5791 23.6793L19.002 23.4405C18.1684 23.0932 17.7622 22.5723 17.7622 21.8778C17.7622 21.422 17.9332 21.0313 18.2752 20.7275C18.6172 20.4236 19.0447 20.25 19.5791 20.25C20.2845 20.2717 20.8402 20.619 21.2249 21.3135Z" fill="#5492B7"/>
<path d="M27.8724 21.2705V26.5229H26.9533V21.2705H25.564V20.4023H29.2404V21.2705H27.8724Z" fill="#5492B7"/>
<path d="M34.5842 20.4023V26.5446H33.665V20.4023H34.5842Z" fill="#5492B7"/>
<path d="M39.9492 20.4023L41.6164 24.6564L43.305 20.4023H44.3096L41.595 27.0004L38.9446 20.4023H39.9492Z" fill="#5492B7"/>
<path d="M51.7053 25.0469H49.119L48.4564 26.5445H47.4731L50.4656 20.0332L53.3512 26.5445H52.3466L51.7053 25.0469ZM51.342 24.1787L50.4442 22.0951L49.5037 24.1787H51.342Z" fill="#5492B7"/>
<path d="M58.6094 20.4023V25.6548H60.3835V26.5229H57.7117V20.4023H58.6094Z" fill="#5492B7"/>
<path d="M72.225 25.6549H74.4694V26.523H70.4082L72.5029 23.9402C72.7167 23.6798 72.8877 23.4628 73.0159 23.2674C73.1442 23.0721 73.251 22.9202 73.3365 22.7899C73.4861 22.5295 73.5503 22.3124 73.5503 22.1171C73.5503 21.8349 73.4434 21.5962 73.251 21.4009C73.0587 21.2055 72.8022 21.1187 72.5243 21.1187C71.9044 21.1187 71.5624 21.4877 71.4769 22.2256H70.5792C70.7288 20.9234 71.3701 20.2939 72.5029 20.2939C73.0587 20.2939 73.5075 20.4676 73.8923 20.8365C74.277 21.1838 74.448 21.6396 74.448 22.1605C74.448 22.4861 74.3625 22.8116 74.1915 23.1372C74.106 23.3108 73.9778 23.5062 73.8068 23.7232C73.6358 23.962 73.422 24.2224 73.1655 24.5263L72.225 25.6549Z" fill="#5492B7"/>
<path d="M79.1077 23.4193C79.1077 22.4427 79.3214 21.6613 79.7703 21.0753C80.1764 20.5544 80.668 20.2939 81.2238 20.2939C81.7795 20.2939 82.2925 20.5544 82.6772 21.0753C83.1261 21.6613 83.3399 22.4427 83.3399 23.4628C83.3399 24.4611 83.1261 25.2642 82.6772 25.8502C82.2711 26.3711 81.8009 26.6316 81.2238 26.6316C80.6466 26.6316 80.1764 26.3711 79.7489 25.8502C79.3214 25.2642 79.1077 24.4611 79.1077 23.4193ZM80.0054 23.4193C80.0054 24.0922 80.1123 24.6565 80.3474 25.1123C80.5825 25.5464 80.8818 25.7851 81.2238 25.7851C81.5871 25.7851 81.865 25.5681 82.1001 25.1123C82.3352 24.6782 82.4421 24.1139 82.4421 23.4411C82.4421 22.7682 82.3352 22.2039 82.1001 21.7698C81.865 21.3357 81.5658 21.1187 81.2238 21.1187C80.8604 21.1187 80.5825 21.3357 80.3474 21.7698C80.1123 22.2256 80.0054 22.7682 80.0054 23.4193Z" fill="#5492B7"/>
<path d="M89.3247 25.6549H91.569V26.523H87.5078L89.6025 23.9402C89.8163 23.6798 89.9873 23.4628 90.1155 23.2674C90.2438 23.0721 90.3506 22.9202 90.4361 22.7899C90.5858 22.5295 90.6499 22.3124 90.6499 22.1171C90.6499 21.8349 90.543 21.5962 90.3506 21.4009C90.1583 21.2055 89.9018 21.1187 89.6239 21.1187C89.004 21.1187 88.662 21.4877 88.5765 22.2256H87.6788C87.8284 20.9234 88.4697 20.2939 89.6025 20.2939C90.1583 20.2939 90.6071 20.4676 90.9919 20.8365C91.3766 21.1838 91.5476 21.6396 91.5476 22.1605C91.5476 22.4861 91.4621 22.8116 91.2911 23.1372C91.2056 23.3108 91.0774 23.5062 90.9064 23.7232C90.7354 23.962 90.5216 24.2224 90.2651 24.5263L89.3247 25.6549Z" fill="#5492B7"/>
<path d="M96.2073 23.4193C96.2073 22.4427 96.421 21.6613 96.8699 21.0753C97.276 20.5544 97.7676 20.2939 98.3234 20.2939C98.8791 20.2939 99.3921 20.5544 99.7768 21.0753C100.226 21.6613 100.439 22.4427 100.439 23.4628C100.439 24.4611 100.226 25.2642 99.7768 25.8502C99.3707 26.3711 98.9005 26.6316 98.3234 26.6316C97.7462 26.6316 97.276 26.3711 96.8485 25.8502C96.421 25.2642 96.2073 24.4611 96.2073 23.4193ZM97.105 23.4193C97.105 24.0922 97.2119 24.6565 97.447 25.1123C97.6821 25.5464 97.9814 25.7851 98.3234 25.7851C98.6867 25.7851 98.9646 25.5681 99.1997 25.1123C99.4348 24.6782 99.5417 24.1139 99.5417 23.4411C99.5417 22.7682 99.4348 22.2039 99.1997 21.7698C98.9646 21.3357 98.6654 21.1187 98.3234 21.1187C97.96 21.1187 97.6821 21.3357 97.447 21.7698C97.2333 22.2256 97.105 22.7682 97.105 23.4193Z" fill="#5492B7"/>
</svg>
