<svg width="38" height="27" viewBox="0 0 38 27" fill="none" xmlns="http://www.w3.org/2000/svg">
<path fill-rule="evenodd" clip-rule="evenodd" d="M18.776 23.2413C17.9809 22.7007 17.075 21.9688 16.3125 21.026C15.6087 20.1557 14.8722 18.9492 15.0156 17.6635C15.0417 17.413 15.1655 17.1294 15.3154 16.9251C16.5145 15.2504 21.65 15.1581 22.4711 17.3206C22.5363 17.4987 22.5819 17.7031 22.5819 17.8745C22.621 19.1799 21.8846 20.2942 21.2133 21.0985C20.4834 21.982 19.5971 22.6479 18.776 23.2413ZM17.8245 18.1646C17.5833 18.4745 17.2705 18.9492 17.3487 19.4305C17.5116 20.4458 19.9164 20.3931 20.2227 19.5425C20.3792 19.1074 20.0533 18.4942 19.7926 18.158C19.4798 17.7558 19.0823 17.4723 18.789 17.2811C18.4436 17.525 18.1308 17.7756 17.8245 18.1646Z" fill="white"/>
<path fill-rule="evenodd" clip-rule="evenodd" d="M30.174 0C29.5549 1.5428 28.9619 3.11198 28.3949 4.70093C26.6939 5.68332 24.8366 6.50746 22.9531 7.30524C24.6215 7.25908 26.2703 7.18656 27.7627 6.96239C27.2674 8.22169 26.8047 9.51395 26.3485 10.8128C25.8271 10.8853 25.3123 10.9644 24.7975 11.0436C25.1559 11.6238 25.7815 12.2633 26.1204 12.8633C24.993 12.8765 23.8525 12.7776 22.8423 12.7512C23.6244 13.0215 24.3152 13.3973 24.9408 13.9248C25.0972 14.0566 25.3775 14.4127 25.5078 14.4325C25.6382 14.4522 26.0487 14.2874 26.2833 14.2281C29.9981 13.2061 33.98 12.1314 37.6296 11.1359C36.3392 12.5072 34.9771 13.9248 33.6411 15.3555C33.4521 15.5599 33.2305 15.8236 33.0481 15.9291C32.82 16.0676 32.5137 16.1269 32.253 16.2324C31.484 16.5291 30.7215 16.8258 29.9525 17.1554C31.9076 17.5708 33.9148 17.9268 35.8569 18.3554C34.0973 19.0147 32.2921 19.6411 30.4543 20.3136C30.1936 20.4125 29.9329 20.5641 29.6983 20.5905C29.1509 20.6432 28.6621 20.4322 28.1277 20.452C29.3985 21.8761 30.9821 23.3069 32.253 24.7376C30.4934 24.2497 28.5774 23.8014 26.733 23.3332C26.4723 23.2673 26.1726 23.2212 25.9575 23.1289C25.6382 22.9838 25.3644 22.641 25.0907 22.4102C24.7779 22.1531 24.4911 21.9355 24.2044 21.7179C22.712 23.7552 20.8481 25.4299 18.7105 26.8144C16.6511 25.3903 14.8329 23.7222 13.3535 21.7179C13.0863 21.9553 12.793 22.1794 12.4867 22.4366C12.213 22.6607 11.9328 22.997 11.6199 23.1289C11.3918 23.2212 11.0921 23.2673 10.8249 23.3332C9.05221 23.7948 7.07102 24.2761 5.31141 24.7376C6.60179 23.4058 7.95734 22.041 9.27379 20.7026C9.34548 20.63 9.48234 20.518 9.45627 20.452C8.92839 20.4388 8.44612 20.6366 7.90521 20.5905C7.67059 20.5707 7.38384 20.4125 7.10361 20.3136C5.31141 19.6608 3.48012 19.0015 1.72702 18.329C3.71473 17.94 5.71547 17.5708 7.65104 17.1291C6.84944 16.8258 6.10649 16.5423 5.30489 16.2324C5.05073 16.1335 4.74443 16.061 4.52936 15.9291C4.34037 15.817 4.13834 15.5335 3.93631 15.3291C2.60031 13.9709 1.25128 12.4809 0 11.1359C4.008 12.2567 8.07465 13.3116 12.0761 14.4325C12.8973 13.4435 14.1486 12.8897 15.5171 12.4479C14.0247 12.2567 11.646 11.9996 10.4599 12.6589C10.3165 12.738 10.2057 12.8567 10.1406 13.0017C9.59313 12.7314 9.31289 12.3226 9.02614 11.8479C8.73939 11.3666 8.49826 10.7732 8.49826 10.0941C8.50478 8.72277 9.35851 7.8195 10.1406 7.18656C10.9682 6.52724 11.9262 5.94704 13.0146 5.53167C14.1029 5.1163 15.3086 4.78664 16.4752 4.47017C19.9683 3.53394 23.6895 2.63727 26.9807 1.40435C28.1146 0.982383 29.2291 0.567013 30.148 0C30.1545 0 30.1675 0 30.174 0ZM23.8134 19.8257C24.1848 19.0609 24.5628 18.0389 24.4977 17.0104C24.4129 15.6258 23.3898 14.9204 22.3535 14.4522C20.2485 13.4962 16.8922 13.5753 14.9502 14.5445C14.0964 14.9665 13.2101 15.6786 13.1058 16.806C13.0016 17.8609 13.347 18.8828 13.7184 19.6872C14.8198 22.0674 16.8336 23.7948 18.7561 25.153C20.7112 23.7684 22.6859 22.1399 23.8134 19.8257Z" fill="white"/>
</svg>
